<svg width="23" height="24" viewBox="0 0 23 24" fill="none" xmlns="http://www.w3.org/2000/svg">
<path d="M21.9074 17.5323C21.267 16.4292 20.315 13.3079 20.315 9.23117C20.315 6.78291 19.3425 4.43493 17.6113 2.70375C15.8801 0.972567 13.5321 0 11.0839 0C8.63562 0 6.28764 0.972567 4.55646 2.70375C2.82528 4.43493 1.85271 6.78291 1.85271 9.23117C1.85271 13.309 0.89959 16.4292 0.259178 17.5323C0.0956372 17.8127 0.00893789 18.1314 0.00782338 18.456C0.00670888 18.7806 0.0912188 19.0998 0.25283 19.3814C0.414442 19.663 0.647441 19.8969 0.928329 20.0597C1.20922 20.2225 1.52806 20.3083 1.85271 20.3086H6.56176C6.77473 21.3507 7.34113 22.2873 8.16514 22.96C8.98914 23.6326 10.0202 24 11.0839 24C12.1476 24 13.1786 23.6326 14.0026 22.96C14.8266 22.2873 15.393 21.3507 15.606 20.3086H20.315C20.6396 20.3081 20.9583 20.2221 21.239 20.0593C21.5197 19.8964 21.7526 19.6624 21.9141 19.3809C22.0755 19.0994 22.1599 18.7803 22.1588 18.4557C22.1576 18.1312 22.0709 17.8127 21.9074 17.5323ZM11.0839 22.1548C10.5113 22.1546 9.95292 21.977 9.4855 21.6464C9.01807 21.3157 8.66461 20.8484 8.47376 20.3086H13.694C13.5031 20.8484 13.1497 21.3157 12.6823 21.6464C12.2148 21.977 11.6564 22.1546 11.0839 22.1548ZM1.85271 18.4623C2.74121 16.9346 3.69894 13.3944 3.69894 9.23117C3.69894 7.27256 4.477 5.39417 5.86194 4.00923C7.24688 2.62429 9.12527 1.84623 11.0839 1.84623C13.0425 1.84623 14.9209 2.62429 16.3058 4.00923C17.6908 5.39417 18.4688 7.27256 18.4688 9.23117C18.4688 13.391 19.4242 16.9311 20.315 18.4623H1.85271Z" fill="black"/>
</svg>
