<svg width="21" height="24" viewBox="0 0 21 24" fill="none" xmlns="http://www.w3.org/2000/svg">
<path d="M18.0759 3.92035H14.556C14.156 1.19998 12.2846 0 10.1561 0C7.35612 0 6.15615 1.59997 5.75615 3.92035H2.71621C1.30823 3.92035 0.15625 5.07233 0.15625 6.4803V21.84C0.15625 23.248 1.54823 24 2.9562 24H18.1559C19.5639 24 20.1559 23.408 20.1559 22V6.4003C20.1559 4.99233 19.4839 3.92035 18.0759 3.92035ZM10.1561 1.59997C11.5641 1.59997 12.956 2.51237 12.956 3.92035H7.35612C7.35612 2.51237 8.7481 1.59997 10.1561 1.59997ZM18.5559 22.4H1.75622V5.60032H5.75615V9.04026C5.75615 9.74425 5.85215 10.4002 6.55614 10.4002C7.26013 10.4002 7.35612 9.74425 7.35612 9.04026V5.60032H12.956V9.04026C12.956 9.74425 13.052 10.4002 13.756 10.4002C14.46 10.4002 14.556 9.74425 14.556 9.04026V5.60032H18.5559V22.4Z" fill="black"/>
</svg>
