<svg width="40" height="40" viewBox="0 0 40 40" fill="none" xmlns="http://www.w3.org/2000/svg">
<g id="Group">
<path id="Vector" fill-rule="evenodd" clip-rule="evenodd" d="M20 0C31.046 0 40 8.95397 40 20C40 31.046 31.046 40 20 40C8.95397 40 0 31.046 0 20C0 8.95397 8.95397 0 20 0ZM10.0991 20.2609C9.36034 19.4444 9.42431 18.1839 10.2396 17.4464C11.0561 16.7076 12.3166 16.7716 13.0541 17.5869L18.0359 23.0917L28.801 11.9717C29.5698 11.1815 30.8328 11.1639 31.623 11.9328C32.4131 12.7016 32.4307 13.9646 31.6619 14.7548L19.4193 27.4012L19.4168 27.3987C19.3879 27.4288 19.3566 27.4589 19.3252 27.4865C18.51 28.2253 17.2495 28.1625 16.5107 27.346L10.0978 20.2609H10.0991Z" fill="#7DDEC1"/>
</g>
</svg>
