<svg width="10" height="12" viewBox="0 0 10 12" fill="none" xmlns="http://www.w3.org/2000/svg">
<path d="M5.355 0.146894C5.30855 0.10033 5.25338 0.0633875 5.19263 0.0381811C5.13189 0.0129746 5.06677 0 5.001 0C4.93523 0 4.87011 0.0129746 4.80937 0.0381811C4.74862 0.0633875 4.69345 0.10033 4.647 0.146894C3.404 1.38789 2.03 1.99989 0.5 1.99989C0.367392 1.99989 0.240215 2.05257 0.146447 2.14634C0.0526785 2.24011 0 2.36729 0 2.49989V5.50089C0 8.71989 1.641 10.9079 4.842 11.9739C4.94455 12.0081 5.05545 12.0081 5.158 11.9739C8.358 10.9079 10 8.71989 10 5.50089V2.49989C10 2.36729 9.94732 2.24011 9.85355 2.14634C9.75979 2.05257 9.63261 1.99989 9.5 1.99989C7.969 1.99989 6.595 1.38989 5.355 0.146894ZM7.854 4.14689C7.94774 4.24066 8.00039 4.36781 8.00039 4.50039C8.00039 4.63298 7.94774 4.76013 7.854 4.85389L4.854 7.85389C4.80755 7.90046 4.75238 7.9374 4.69163 7.96261C4.63089 7.98781 4.56577 8.00079 4.5 8.00079C4.43423 8.00079 4.36911 7.98781 4.30837 7.96261C4.24762 7.9374 4.19245 7.90046 4.146 7.85389L2.646 6.35389C2.55211 6.26001 2.49937 6.13267 2.49937 5.99989C2.49937 5.86712 2.55211 5.73978 2.646 5.64589C2.73989 5.55201 2.86722 5.49926 3 5.49926C3.13278 5.49926 3.26011 5.55201 3.354 5.64589L4.5 6.79289L7.146 4.14689C7.19245 4.10033 7.24762 4.06339 7.30837 4.03818C7.36911 4.01297 7.43423 4 7.5 4C7.56577 4 7.63089 4.01297 7.69163 4.03818C7.75238 4.06339 7.80755 4.10033 7.854 4.14689Z" fill="#7DDEC1"/>
</svg>
